<?xml version="1.0" encoding="iso-8859-1"?>
<!-- Generator: Adobe Illustrator 19.0.0, SVG Export Plug-In . SVG Version: 6.00 Build 0)  -->
<svg version="1.1" id="Layer_1" xmlns="http://www.w3.org/2000/svg" xmlns:xlink="http://www.w3.org/1999/xlink" x="0px" y="0px"
	 viewBox="0 0 512 512" style="enable-background:new 0 0 512 512;" xml:space="preserve">
<g>
	<g>
		<path d="M477.867,196.267h8.533c14.138,0,25.6-11.461,25.6-25.6v-128c0-14.138-11.461-25.6-25.6-25.6h-8.533
			c-9.426,0-17.067,7.641-17.067,17.067V76.8h-17.067V59.733C443.733,26.744,416.99,0,384,0H119.467
			c-32.99,0-59.733,26.744-59.733,59.733v162.133c0,14.138,11.461,25.6,25.6,25.6V256c0.03,10.822,6.863,20.457,17.067,24.064V307.2
			c0,4.713,3.82,8.533,8.533,8.533s8.533-3.82,8.533-8.533v-27.136c10.204-3.607,17.036-13.242,17.067-24.064v-8.533h8.533
			c14.138,0,25.6-11.461,25.6-25.6V179.2c0-18.851,15.282-34.133,34.133-34.133h25.6c18.851,0,34.133,15.282,34.133,34.133v102.4
			c0,23.564-19.102,42.667-42.667,42.667H51.2c-14.138,0-25.6,11.462-25.6,25.6v17.067h-8.533C7.641,366.933,0,374.574,0,384
			v110.933C0,504.359,7.641,512,17.067,512h477.867c9.426,0,17.067-7.641,17.067-17.067V384c0-9.426-7.641-17.067-17.067-17.067
			h-102.4v-17.067H409.6c14.138,0,25.6-11.462,25.6-25.6V256c0-14.138-11.461-25.6-25.6-25.6h-17.067v-17.664
			c29.395-4.243,51.208-29.437,51.2-59.136v-17.067H460.8V179.2C460.8,188.626,468.441,196.267,477.867,196.267z M477.867,128
			V34.133h8.533c4.713,0,8.533,3.82,8.533,8.533v128c0,4.713-3.82,8.533-8.533,8.533h-8.533V128z M119.467,256
			c0,4.713-3.82,8.533-8.533,8.533s-8.533-3.82-8.533-8.533v-8.533h17.067V256z M50.517,412.843
			c-0.434,1.033-1.04,1.986-1.792,2.816c-0.83,0.752-1.783,1.358-2.816,1.792c-1.013,0.478-2.123,0.711-3.243,0.683
			c-2.268,0.013-4.448-0.877-6.059-2.475c-1.597-1.61-2.488-3.79-2.475-6.059c0.013-1.115,0.245-2.217,0.683-3.243
			c0.432-1.034,1.038-1.987,1.792-2.816l1.28-1.024c0.475-0.325,0.991-0.583,1.536-0.768c0.474-0.304,0.992-0.534,1.536-0.683
			c1.664-0.325,3.387-0.147,4.949,0.512c0.525,0.169,1.016,0.429,1.451,0.768c0.488,0.295,0.946,0.638,1.365,1.024
			c1.6,1.678,2.487,3.911,2.475,6.229C51.187,410.715,50.955,411.817,50.517,412.843z M153.6,418.133H76.8
			c-4.713,0-8.533-3.82-8.533-8.533s3.82-8.533,8.533-8.533h76.8c4.713,0,8.533,3.82,8.533,8.533S158.313,418.133,153.6,418.133z
			 M358.4,332.8c0,9.426-7.641,17.067-17.067,17.067h-25.6c-9.426,0-17.067-7.641-17.067-17.067v-59.733
			c0-9.426,7.641-17.067,17.067-17.067h25.6c9.426,0,17.067,7.641,17.067,17.067V332.8z M418.133,324.267
			c0,4.713-3.82,8.533-8.533,8.533h-17.067v-17.067h25.6V324.267z M418.133,298.667h-25.6V281.6h25.6V298.667z M409.6,247.467
			c4.713,0,8.533,3.82,8.533,8.533v8.533h-25.6v-17.067H409.6z M349.867,136.533c-23.564,0-42.667-19.102-42.667-42.667
			c-0.017-2.346,0.182-4.688,0.597-6.997c0,0,0,0,0-0.512c0.016-0.284,0.016-0.569,0-0.853c4.451-23.14,26.818-38.291,49.958-33.84
			c17.14,3.297,30.543,16.7,33.84,33.84c-0.015,0.284-0.015,0.569,0,0.853c0,0,0,0.512,0,0.683c0.519,2.242,0.833,4.527,0.939,6.827
			C392.533,117.431,373.431,136.533,349.867,136.533z M443.733,119.467v-25.6H460.8v25.6H443.733z"/>
	</g>
</g>
<g>
	<g>
		<rect x="315.733" y="273.067" width="25.6" height="25.6"/>
	</g>
</g>
<g>
	<g>
		<rect x="315.733" y="315.733" width="25.6" height="17.067"/>
	</g>
</g>
<g>
</g>
<g>
</g>
<g>
</g>
<g>
</g>
<g>
</g>
<g>
</g>
<g>
</g>
<g>
</g>
<g>
</g>
<g>
</g>
<g>
</g>
<g>
</g>
<g>
</g>
<g>
</g>
<g>
</g>
</svg>
