<?xml version="1.0" encoding="UTF-8" standalone="no"?>
<svg width="58px" height="58px" viewBox="0 0 58 58" version="1.1" xmlns="http://www.w3.org/2000/svg" xmlns:xlink="http://www.w3.org/1999/xlink">
    <!-- Generator: Sketch 40.1 (33804) - http://www.bohemiancoding.com/sketch -->
    <title>Group 2</title>
    <desc>Created with Sketch.</desc>
    <defs></defs>
    <g id="Symbols" stroke="none" stroke-width="1" fill="none" fill-rule="evenodd" stroke-linecap="round">
        <g id="Group" transform="translate(1.000000, 1.000000)" stroke-width="2" stroke="#000000">
            <g id="Group-2">
                <path d="M56,28 C56,43.464 43.464,56 28,56 C12.536,56 0,43.464 0,28 C0,12.536 12.536,0 28,0 C43.464,0 56,12.536 56,28 L56,28 Z" id="Stroke-5854"></path>
                <path d="M28,56 L28,0" id="Stroke-5856"></path>
                <path d="M28,0 C27.786,0 27.574,0.012 27.361,0.016 C19.213,6.616 14,16.697 14,28 C14,39.303 19.213,49.384 27.361,55.984 C27.574,55.988 27.786,56 28,56" id="Stroke-5858"></path>
                <path d="M7.698,8.728 C13.478,12.683 20.468,15 28,15 C35.532,15 42.522,12.683 48.302,8.728" id="Stroke-5860"></path>
                <path d="M48.862,46.67 C42.975,42.476 35.779,40 28,40 C20.221,40 13.025,42.476 7.138,46.67" id="Stroke-5862"></path>
                <path d="M28,56 C28.214,56 28.426,55.988 28.639,55.984 C36.787,49.384 42,39.303 42,28 C42,16.697 36.787,6.616 28.639,0.016 C28.426,0.012 28.214,0 28,0" id="Stroke-5864"></path>
                <path d="M0,28 L56,28" id="Stroke-5866"></path>
            </g>
        </g>
    </g>
</svg>