<?xml version="1.0" encoding="UTF-8" standalone="no"?>
<svg width="27px" height="24px" viewBox="0 0 27 24" version="1.1" xmlns="http://www.w3.org/2000/svg" xmlns:xlink="http://www.w3.org/1999/xlink">
    <!-- Generator: Sketch 40.1 (33804) - http://www.bohemiancoding.com/sketch -->
    <title>Group 2</title>
    <desc>Created with Sketch.</desc>
    <defs></defs>
    <g id="Symbols" stroke="none" stroke-width="1" fill="none" fill-rule="evenodd">
        <g id="Group" transform="translate(1.000000, 1.000000)">
            <g id="Group-2">
                <path d="M22.8448276,12.9310345 C22.8448276,15.0737069 21.1077586,16.8103448 18.9655172,16.8103448 C16.8228448,16.8103448 15.0862069,15.0737069 15.0862069,12.9310345 C15.0862069,10.7883621 16.8228448,9.05172414 18.9655172,9.05172414 C21.1077586,9.05172414 22.8448276,10.7883621 22.8448276,12.9310345 L22.8448276,12.9310345 Z M18.9655172,16.8103448 C17.9706897,16.8103448 17.0659483,16.4327586 16.3793103,15.8168103 L16.3793103,22.4137931 L18.9655172,19.8275862 L21.5517241,22.4137931 L21.5517241,15.8168103 C20.8650862,16.4327586 19.9603448,16.8103448 18.9655172,16.8103448 L18.9655172,16.8103448 Z" id="Stroke-26" stroke="#000000" stroke-width="0.5" stroke-linecap="round" stroke-linejoin="round"></path>
                <path d="M23.2758621,9.05172414 C23.037931,9.05172414 22.8448276,8.85862069 22.8448276,8.62068966 L22.8448276,8.18965517 C22.8448276,7.95172414 23.037931,7.75862069 23.2758621,7.75862069 C23.5137931,7.75862069 23.7068966,7.95172414 23.7068966,8.18965517 L23.7068966,8.62068966 C23.7068966,8.85862069 23.5137931,9.05172414 23.2758621,9.05172414" id="Fill-27" fill="#000000"></path>
                <path d="M23.2758621,6.10646552 C23.037931,6.10646552 22.8448276,5.91336207 22.8448276,5.67543103 L22.8448276,4.66939655 C22.8448276,4.43146552 23.037931,4.23836207 23.2758621,4.23836207 C23.5137931,4.23836207 23.7068966,4.43146552 23.7068966,4.66939655 L23.7068966,5.67543103 C23.7068966,5.91336207 23.5137931,6.10646552 23.2758621,6.10646552" id="Fill-28" fill="#000000"></path>
                <path d="M23.2758621,2.5862069 C23.037931,2.5862069 22.8448276,2.39310345 22.8448276,2.15517241 C22.6068966,2.15517241 22.4137931,1.96206897 22.4137931,1.72413793 C22.4137931,1.4862069 22.6068966,1.29310345 22.8448276,1.29310345 L23.7068966,1.29310345 L23.7068966,2.15517241 C23.7068966,2.39310345 23.5137931,2.5862069 23.2758621,2.5862069" id="Fill-29" fill="#000000"></path>
                <path d="M20.6439655,2.15517241 L19.7633621,2.15517241 C19.525431,2.15517241 19.3323276,1.96206897 19.3323276,1.72413793 C19.3323276,1.4862069 19.525431,1.29310345 19.7633621,1.29310345 L20.6439655,1.29310345 C20.8818966,1.29310345 21.074569,1.4862069 21.074569,1.72413793 C21.074569,1.96206897 20.8818966,2.15517241 20.6439655,2.15517241 L20.6439655,2.15517241 Z M17.5625,2.15517241 L16.6818966,2.15517241 C16.4439655,2.15517241 16.2508621,1.96206897 16.2508621,1.72413793 C16.2508621,1.4862069 16.4439655,1.29310345 16.6818966,1.29310345 L17.5625,1.29310345 C17.800431,1.29310345 17.9935345,1.4862069 17.9935345,1.72413793 C17.9935345,1.96206897 17.800431,2.15517241 17.5625,2.15517241 L17.5625,2.15517241 Z M14.4810345,2.15517241 L13.600431,2.15517241 C13.3625,2.15517241 13.1693966,1.96206897 13.1693966,1.72413793 C13.1693966,1.4862069 13.3625,1.29310345 13.600431,1.29310345 L14.4810345,1.29310345 C14.7189655,1.29310345 14.912069,1.4862069 14.912069,1.72413793 C14.912069,1.96206897 14.7189655,2.15517241 14.4810345,2.15517241 L14.4810345,2.15517241 Z M11.399569,2.15517241 L10.5189655,2.15517241 C10.2810345,2.15517241 10.087931,1.96206897 10.087931,1.72413793 C10.087931,1.4862069 10.2810345,1.29310345 10.5189655,1.29310345 L11.399569,1.29310345 C11.6375,1.29310345 11.8306034,1.4862069 11.8306034,1.72413793 C11.8306034,1.96206897 11.6375,2.15517241 11.399569,2.15517241 L11.399569,2.15517241 Z M8.31810345,2.15517241 L7.4375,2.15517241 C7.19956897,2.15517241 7.00646552,1.96206897 7.00646552,1.72413793 C7.00646552,1.4862069 7.19956897,1.29310345 7.4375,1.29310345 L8.31810345,1.29310345 C8.55603448,1.29310345 8.74913793,1.4862069 8.74913793,1.72413793 C8.74913793,1.96206897 8.55603448,2.15517241 8.31810345,2.15517241 L8.31810345,2.15517241 Z M5.23663793,2.15517241 L4.35603448,2.15517241 C4.11810345,2.15517241 3.925,1.96206897 3.925,1.72413793 C3.925,1.4862069 4.11810345,1.29310345 4.35603448,1.29310345 L5.23663793,1.29310345 C5.47456897,1.29310345 5.66767241,1.4862069 5.66767241,1.72413793 C5.66767241,1.96206897 5.47456897,2.15517241 5.23663793,2.15517241 L5.23663793,2.15517241 Z" id="Fill-30" fill="#000000"></path>
                <path d="M1.72413793,2.5862069 C1.4862069,2.5862069 1.29310345,2.39310345 1.29310345,2.15517241 L1.29310345,1.29310345 L2.15517241,1.29310345 C2.39310345,1.29310345 2.5862069,1.4862069 2.5862069,1.72413793 C2.5862069,1.96206897 2.39310345,2.15517241 2.15517241,2.15517241 C2.15517241,2.39310345 1.96206897,2.5862069 1.72413793,2.5862069" id="Fill-31" fill="#000000"></path>
                <path d="M1.72413793,15.0206897 C1.4862069,15.0206897 1.29310345,14.8275862 1.29310345,14.5896552 L1.29310345,13.7017241 C1.29310345,13.4633621 1.4862069,13.2706897 1.72413793,13.2706897 C1.96206897,13.2706897 2.15517241,13.4633621 2.15517241,13.7017241 L2.15517241,14.5896552 C2.15517241,14.8275862 1.96206897,15.0206897 1.72413793,15.0206897 L1.72413793,15.0206897 Z M1.72413793,11.912069 C1.4862069,11.912069 1.29310345,11.7189655 1.29310345,11.4810345 L1.29310345,10.5931034 C1.29310345,10.3547414 1.4862069,10.162069 1.72413793,10.162069 C1.96206897,10.162069 2.15517241,10.3547414 2.15517241,10.5931034 L2.15517241,11.4810345 C2.15517241,11.7189655 1.96206897,11.912069 1.72413793,11.912069 L1.72413793,11.912069 Z M1.72413793,8.80344828 C1.4862069,8.80344828 1.29310345,8.61077586 1.29310345,8.37241379 L1.29310345,7.48405172 C1.29310345,7.24612069 1.4862069,7.05301724 1.72413793,7.05301724 C1.96206897,7.05301724 2.15517241,7.24612069 2.15517241,7.48405172 L2.15517241,8.37241379 C2.15517241,8.61077586 1.96206897,8.80344828 1.72413793,8.80344828 L1.72413793,8.80344828 Z M1.72413793,5.69482759 C1.4862069,5.69482759 1.29310345,5.50172414 1.29310345,5.2637931 L1.29310345,4.37543103 C1.29310345,4.1375 1.4862069,3.94439655 1.72413793,3.94439655 C1.96206897,3.94439655 2.15517241,4.1375 2.15517241,4.37543103 L2.15517241,5.2637931 C2.15517241,5.50172414 1.96206897,5.69482759 1.72413793,5.69482759 L1.72413793,5.69482759 Z" id="Fill-32" fill="#000000"></path>
                <path d="M2.15517241,17.6724138 L1.29310345,17.6724138 L1.29310345,16.8103448 C1.29310345,16.5724138 1.4862069,16.3793103 1.72413793,16.3793103 C1.96206897,16.3793103 2.15517241,16.5724138 2.15517241,16.8103448 C2.39310345,16.8103448 2.5862069,17.0034483 2.5862069,17.2413793 C2.5862069,17.4793103 2.39310345,17.6724138 2.15517241,17.6724138" id="Fill-33" fill="#000000"></path>
                <path d="M11.2068966,17.6724138 L10.3448276,17.6724138 C10.1068966,17.6724138 9.9137931,17.4793103 9.9137931,17.2413793 C9.9137931,17.0034483 10.1068966,16.8103448 10.3448276,16.8103448 L11.2068966,16.8103448 C11.4448276,16.8103448 11.637931,17.0034483 11.637931,17.2413793 C11.637931,17.4793103 11.4448276,17.6724138 11.2068966,17.6724138 L11.2068966,17.6724138 Z M8.18965517,17.6724138 L7.32758621,17.6724138 C7.08965517,17.6724138 6.89655172,17.4793103 6.89655172,17.2413793 C6.89655172,17.0034483 7.08965517,16.8103448 7.32758621,16.8103448 L8.18965517,16.8103448 C8.42758621,16.8103448 8.62068966,17.0034483 8.62068966,17.2413793 C8.62068966,17.4793103 8.42758621,17.6724138 8.18965517,17.6724138 L8.18965517,17.6724138 Z M5.17241379,17.6724138 L4.31034483,17.6724138 C4.07241379,17.6724138 3.87931034,17.4793103 3.87931034,17.2413793 C3.87931034,17.0034483 4.07241379,16.8103448 4.31034483,16.8103448 L5.17241379,16.8103448 C5.41034483,16.8103448 5.60344828,17.0034483 5.60344828,17.2413793 C5.60344828,17.4793103 5.41034483,17.6724138 5.17241379,17.6724138 L5.17241379,17.6724138 Z" id="Fill-34" fill="#000000"></path>
                <path d="M0,0 L0,18.9655172 L16.3793103,18.9655172 L16.3793103,15.8168103 C17.0659483,16.4327586 17.9706897,16.8103448 18.9655172,16.8103448 C19.9603448,16.8103448 20.8650862,16.4327586 21.5517241,15.8168103 L21.5517241,18.9655172 L25,18.9655172 L25,0 L0,0 L0,0 Z" id="Stroke-36" stroke="#000000" stroke-width="0.6" stroke-linecap="round" stroke-linejoin="round"></path>
                <path d="M4.31034483,5.60344828 L20.2586207,5.60344828 M4.31034483,8.18965517 L15.0862069,8.18965517 M4.31034483,11.0410341 L13.7931034,11.0410341 M4.31034483,13.7931034 L13.362069,13.7931034" id="Stroke-37" stroke="#000000" stroke-width="0.5" stroke-linecap="round" stroke-linejoin="round"></path>
            </g>
        </g>
    </g>
</svg>