<svg xmlns="http://www.w3.org/2000/svg" viewBox="0 0 174.56 270.33"><defs><style>.cls-1{fill:#b3ceff;}.cls-2{fill:#007eff;}</style></defs><title>Monogram_Color</title><g id="Layer_2" data-name="Layer 2"><g id="Layer_1-2" data-name="Layer 1"><path class="cls-1" d="M61.95,134.1l-4.42-9.71a20,20,0,0,0-18.21-11.72H.57l22.86,50.28a20,20,0,0,0,18.21,11.72H82.26a20,20,0,0,0,18.2-11.72L174.56,0H135.8A20,20,0,0,0,117.6,11.72Z"/><path class="cls-2" d="M0,270.32H38.75A20,20,0,0,0,57,258.61l5-11,5,11a20,20,0,0,0,18.21,11.72H123.9l-23.31-51.27a20,20,0,0,0-18.21-11.72H41.51a20,20,0,0,0-18.2,11.72Z"/></g></g></svg>