<?xml version="1.0" encoding="iso-8859-1"?>
<!-- Generator: Adobe Illustrator 19.0.0, SVG Export Plug-In . SVG Version: 6.00 Build 0)  -->
<svg version="1.1" id="Capa_1" xmlns="http://www.w3.org/2000/svg" xmlns:xlink="http://www.w3.org/1999/xlink" x="0px" y="0px"
	 viewBox="0 0 512 512" style="enable-background:new 0 0 512 512;" xml:space="preserve">
<g>
	<g>
		<g>
			<path d="M263.521,277.088c1.042,0.323,2.104,0.48,3.146,0.48c4.563,0,8.781-2.94,10.188-7.528
				c3.667-11.878,7.734-22.788,12.112-33.104c15.174,12.541,32.096,19.279,50.659,19.279c83.667,0,151.042-113.427,151.042-207.346
				c0-15.181-12.344-27.536-27.51-27.536c-89.083,0-198.667,62.13-206.417,142.224c-0.469,4.869,2.417,9.436,7.01,11.083
				c4.635,1.689,9.74-0.021,12.458-4.097c28.26-42.091,68.188-74.881,125.667-103.209c5.229-2.617,11.729-0.292,14.26,4.869
				c1.26,2.554,1.448,5.453,0.531,8.153c-0.917,2.7-2.823,4.879-5.375,6.131c-56.194,27.697-93.487,58.994-120.246,101.154
				c-0.47,0.499-1.031,0.88-1.41,1.482c-13.385,21.301-24.24,45.708-33.156,74.62C254.74,269.373,257.885,275.347,263.521,277.088z"
				/>
			<path d="M99.625,273.385L12.75,255.994c-3.104-0.626-6.375,0.188-8.854,2.21C1.437,260.237,0,263.261,0,266.462v170.823
				c0,5.901,4.771,10.676,10.667,10.676H77.5c15.833,0,29.458-11.823,31.688-27.494l15.854-111.143
				C127.438,292.496,116.292,276.711,99.625,273.385z"/>
			<path d="M448,351.873c-13.318,0-35.779,4.752-55.974,9.824c-4.945,1.242-8.145,5.786-8.033,10.887
				c0.005,0.213,0.007,0.427,0.007,0.642c0,16.15-7.104,30.33-19.979,39.953c-12.479,9.321-28.5,13.669-50.417,13.669
				c-28.704,0-67.768-7.44-119.437-22.733c-5.333-1.578-9.102-6.884-8.059-12.352c1.202-6.306,7.56-10.082,13.517-8.298
				c49.292,14.618,87.625,22.031,113.979,22.031c22.438,0,32.25-5.38,37.667-9.436c7.458-5.568,11.396-13.46,11.396-22.833
				c0-1.791-0.326-3.403-0.552-5.072c-4.038-29.476-42.814-40-82.656-48.101c-18.5-3.753-32.271-10.395-45.583-16.828
				c-16.417-7.924-31.917-15.41-52.542-15.41c-8.177,0-16.813,0.596-25.678,1.766c-5.598,0.739-9.638,5.763-9.216,11.399
				c0.31,4.138,0.226,7.852-0.294,11.368l-15.854,111.175c-0.146,1.001-0.438,1.939-0.688,2.888
				c-0.021,0.094-0.542,2.054-0.563,2.137c-1.229,5.015,1.292,10.197,6,12.303c50.75,22.729,118.5,49.816,152.958,49.816
				c41.375,0,126.563-41.913,182.917-69.647c14.546-7.156,26.6-13.095,34.48-16.561c3.818-1.679,6.556-5.317,6.601-9.491
				C512.271,369.612,485.882,351.873,448,351.873z"/>
		</g>
	</g>
</g>
<g>
</g>
<g>
</g>
<g>
</g>
<g>
</g>
<g>
</g>
<g>
</g>
<g>
</g>
<g>
</g>
<g>
</g>
<g>
</g>
<g>
</g>
<g>
</g>
<g>
</g>
<g>
</g>
<g>
</g>
</svg>
